<?xml version="1.0" encoding="UTF-8"?>
<svg version="1.2" baseProfile="tiny-ps" xmlns="http://www.w3.org/2000/svg" width="512" height="512" viewBox="0 0 135.47 135.47">
  <title>Burak Ince</title>
  <rect x="0" y="0" width="135.47" height="135.47" fill="#e6e6e6"/>
  <g fill="#2b3e50">
    <path d="m14.285 130.85c-4.7298-1.0293-8.6499-4.9923-9.662-9.7679-0.51979-2.4526-0.51979-104.23 0-106.68 1.0246-4.8346 4.9439-8.7544 9.7778-9.7792 2.4523-0.51986 104.21-0.51986 106.66 0 4.8339 1.0248 8.7532 4.9446 9.7778 9.7792 0.51981 2.4526 0.51981 104.23 0 106.68-1.0246 4.8346-4.9439 8.7544-9.7778 9.7792-2.3701 0.50244-104.47 0.49166-106.78-0.0112zm33.987-33.187c6.0605-1.4675 10.649-4.6467 12.769-8.8479 1.277-2.5302 1.5878-4.0269 1.5951-7.6838 0.01015-5.0439-0.90674-7.5438-3.8446-10.482-1.8536-1.8539-4.4419-3.2609-7.4207-4.0339-0.8863-0.23-1.7758-0.46719-1.9766-0.52708-0.20085-0.05988 0.37439-0.36735 1.2783-0.68325 2.2955-0.80222 4.3296-2.1017 5.9507-3.8015 2.3322-2.4454 3.4138-5.2919 3.421-9.0032 0.0085-4.3827-1.0462-7.055-3.8975-9.8746-2.0848-2.0616-3.7813-3.0855-6.78-4.0918-3.7485-1.258-5.7656-1.4514-16.404-1.5731l-9.8547-0.11268v61.576l11.218-0.10025c11.135-0.0995 11.238-0.10512 13.945-0.76056zm-17.23-16.78v-11.203l7.1276 0.11188c5.7624 0.09046 7.4099 0.19367 8.6016 0.5389 2.139 0.61965 3.6428 1.4517 4.9045 2.7136 1.9382 1.9385 2.6702 4.1469 2.6802 8.0866 0.0075 2.9844-0.36747 4.5391-1.5119 6.2671-0.91792 1.386-2.2374 2.4769-3.8691 3.1988-2.6459 1.1706-3.3611 1.2618-10.805 1.378l-7.1276 0.11124zm0-27.493v-9.9475h5.5563c6.138 0 8.3514 0.28191 10.783 1.3733 3.4764 1.5603 5.0496 5.0869 4.4836 10.051-0.29314 2.5706-1.0125 4.1667-2.509 5.5667-2.4032 2.2482-3.9919 2.618-11.93 2.7767l-6.3839 0.12766zm81.565 41.999v-3.0994h-13.635v-48.839l13.511-0.13194v-6.1988h-35.204v6.1988l13.511 0.13194v48.839h-13.635v6.1988h35.452z"/>
  </g>
</svg>
