<svg role="img" viewBox="0 0 24 24" xmlns="http://www.w3.org/2000/svg"><title>Web</title><path d="M12 0C5.373 0 0 5.373 0 12s5.373 12 12 12 12-5.373 12-12S18.627 0 12 0zm-1.25 2.116v.027c-.67.096-1.322.273-1.943.524A9.888 9.888 0 0 0 6.42 4.42 9.853 9.853 0 0 0 4.667 6.8a9.927 9.927 0 0 0-.521 1.94H2.116a10.018 10.018 0 0 1 8.634-8.624zm2.5 0a10.018 10.018 0 0 1 8.634 8.624h-2.03a9.927 9.927 0 0 0-.521-1.94 9.853 9.853 0 0 0-1.753-2.38 9.888 9.888 0 0 0-2.387-1.754 9.937 9.937 0 0 0-1.943-.524V2.116zm-1.25.218v3.791c-.586-.047-1.163-.145-1.723-.296a8.374 8.374 0 0 1 1.723-3.495zm1.25 0a8.374 8.374 0 0 1 1.723 3.495 9.411 9.411 0 0 1-1.723.296V2.334zM6.29 5.567A8.354 8.354 0 0 1 7.87 4.3a10.668 10.668 0 0 0-.754 3.575H4.29a8.41 8.41 0 0 1 2-2.308zm11.42 0A8.41 8.41 0 0 1 19.71 7.875h-2.826a10.668 10.668 0 0 0-.754-3.575 8.354 8.354 0 0 1 1.58 1.267zM4.146 9.125h2.97c-.063.616-.096 1.243-.096 1.875s.033 1.259.096 1.875h-2.97a8.303 8.303 0 0 1 0-3.75zm4.22 0h3.384v3.75H8.435a13.157 13.157 0 0 1-.07-1.875c0-.637.024-1.264.07-1.875h-.069zm4.634 0h3.453c.046.611.07 1.238.07 1.875s-.024 1.264-.07 1.875H13v-3.75zm4.703 0h2.97a8.303 8.303 0 0 1 0 3.75h-2.97c.063-.616.096-1.243.096-1.875s-.033-1.259-.096-1.875zM4.29 16.125h2.826a10.668 10.668 0 0 0 .754 3.575A8.41 8.41 0 0 1 4.29 16.125zm4.076 0H11.75v3.791a8.374 8.374 0 0 1-1.723-3.495 9.411 9.411 0 0 0-.661.296 8.354 8.354 0 0 1-.999.704v-.001l-.001-.295zm3.384 0h3.453a9.411 9.411 0 0 1-1.723 3.495v-3.791c.215-.017.43-.04.643-.07a8.55 8.55 0 0 0 1.08-.226 8.354 8.354 0 0 1-1.453.592zm4.96 0h2.826a8.41 8.41 0 0 1-2 2.308 8.354 8.354 0 0 1-1.58-1.267 10.668 10.668 0 0 0 .754-3.575v2.534zm-10.46 3.357a9.888 9.888 0 0 0 2.387 1.754c.62.251 1.272.428 1.943.524v.024a10.018 10.018 0 0 1-8.634-8.624h2.03a9.927 9.927 0 0 0 .521 1.94 9.853 9.853 0 0 0 1.753 2.382zm8.46 1.776a9.888 9.888 0 0 0 2.387-1.754 9.853 9.853 0 0 0 1.753-2.382 9.927 9.927 0 0 0 .521-1.94h2.03a10.018 10.018 0 0 1-8.634 8.624v-.024a9.937 9.937 0 0 0 1.943-.524z"/></svg>
