<?xml version="1.0" standalone="no"?>
<!DOCTYPE svg PUBLIC "-//W3C//DTD SVG 20010904//EN"
 "http://www.w3.org/TR/2001/REC-SVG-20010904/DTD/svg10.dtd">
<svg version="1.0" xmlns="http://www.w3.org/2000/svg"
 width="512.000000pt" height="512.000000pt" viewBox="0 0 512.000000 512.000000"
 preserveAspectRatio="xMidYMid meet">
<metadata>
Created by potrace 1.14, written by Peter Selinger 2001-2017
</metadata>
<g transform="translate(0.000000,512.000000) scale(0.100000,-0.100000)"
fill="#000000" stroke="none">
<path d="M415 5110 c-183 -38 -330 -170 -391 -350 -18 -53 -19 -134 -19 -2200
0 -2066 1 -2147 19 -2200 52 -154 168 -274 322 -332 l59 -23 2155 0 2155 0 59
23 c154 58 270 178 322 332 18 53 19 134 19 2200 0 2066 -1 2147 -19 2200 -52
154 -168 274 -322 332 l-59 23 -2130 1 c-1172 1 -2148 -2 -2170 -6z m1218
-1334 c249 -40 430 -139 532 -292 99 -148 111 -394 28 -564 -53 -109 -206
-231 -340 -271 -24 -7 -43 -15 -43 -19 0 -3 24 -11 53 -17 152 -32 299 -115
378 -215 84 -106 114 -208 112 -388 -1 -148 -28 -248 -91 -346 -103 -158 -270
-260 -522 -316 -87 -20 -130 -22 -537 -26 l-443 -3 0 1242 0 1241 388 -5 c283
-4 413 -9 485 -21z m2727 -101 l0 -125 -272 -2 -273 -3 -3 -987 -2 -988 275 0
275 0 0 -125 0 -125 -705 0 -705 0 0 125 0 125 275 0 275 0 -2 988 -3 987
-272 3 -273 2 0 125 0 125 705 0 705 0 0 -125z"/>
<path d="M1070 3139 l0 -401 268 4 c239 4 274 7 332 26 181 59 255 172 254
387 0 89 -5 121 -22 165 -41 104 -139 175 -282 205 -52 11 -136 15 -311 15
l-239 0 0 -401z"/>
<path d="M1070 2029 l0 -451 298 4 c325 5 348 8 465 71 147 77 216 239 190
440 -17 120 -45 188 -106 251 -111 112 -211 136 -582 136 l-265 0 0 -451z"/>
</g>
</svg>
